<?xml version="1.0" encoding="utf-8"?><svg xmlns="http://www.w3.org/2000/svg" xmlns:xlink="http://www.w3.org/1999/xlink"><symbol fill="none" viewBox="0 0 15 9" id="arrow" xmlns="http://www.w3.org/2000/svg"><path d="M.076 1.407L7.5 8.83l7.424-7.424L13.687.169 7.5 6.357 1.313.169.076 1.407z" fill="#fff"/></symbol><symbol fill="none" viewBox="0 0 24 24" id="back" xmlns="http://www.w3.org/2000/svg"><path d="M8.288 12l6.01 6.01 1.414-1.414-4.6-4.6 4.6-4.6-1.414-1.406L8.288 12z" fill="#1DAFD1"/></symbol><symbol fill="none" viewBox="0 0 31 27" id="basket" xmlns="http://www.w3.org/2000/svg"><g clip-path="url(#cclip0_5:129)"><path d="M2.504 4.977h3.818L8.88 17.76a1.91 1.91 0 001.91 1.537h9.277a1.91 1.91 0 001.91-1.537l1.527-8.009H7.277m3.818 14.318a.954.954 0 11-1.91 0 .954.954 0 011.91 0zm10.5 0a.954.954 0 11-1.91 0 .954.954 0 011.91 0z" stroke="#1DAFD1" stroke-width="2" stroke-linecap="round" stroke-linejoin="round"/></g><defs><clipPath id="cclip0_5:129"><path fill="#fff" transform="translate(1.004 3)" d="M0 0h24v24H0z"/></clipPath></defs></symbol><symbol fill="none" viewBox="0 0 18 13" id="burger" xmlns="http://www.w3.org/2000/svg"><path d="M12 12.5H0v-2h12v2zm6-5H0v-2h18v2zm-6-5H0v-2h12v2z" fill="#fff"/></symbol><symbol fill="none" viewBox="0 0 14 15" id="catalog-close" xmlns="http://www.w3.org/2000/svg"><path d="M12.59.5L7 6.09 1.41.5 0 1.91 5.59 7.5 0 13.09l1.41 1.41L7 8.91l5.59 5.59L14 13.09 8.41 7.5 14 1.91 12.59.5z" fill="#242321"/></symbol><symbol fill="none" viewBox="0 0 14 15" id="close" xmlns="http://www.w3.org/2000/svg"><path d="M12.59.5L7 6.09 1.41.5 0 1.91 5.59 7.5 0 13.09l1.41 1.41L7 8.91l5.59 5.59L14 13.09 8.41 7.5 14 1.91 12.59.5z" fill="#fff"/></symbol><symbol fill="none" viewBox="0 0 20 16" id="email" xmlns="http://www.w3.org/2000/svg"><path d="M18 16H2a2 2 0 01-2-2V1.913A2 2 0 012 0h16a2 2 0 012 2v12a2 2 0 01-2 2zM2 3.868V14h16V3.868L10 9.2 2 3.868zM2.8 2L10 6.8 17.2 2H2.8z" fill="#fff"/></symbol><symbol fill="none" viewBox="0 0 18 21" id="fire" xmlns="http://www.w3.org/2000/svg"><path d="M13 2.5a23.62 23.62 0 00-2.259 2.343C9.646 3.376 8.288 1.888 6.75.5 2.802 4.061 0 8.702 0 11.5a9 9 0 1018 0c0-2.08-2.088-6.373-5-9zm-.782 13.307a5.507 5.507 0 01-3.103.943c-2.899 0-5.258-1.865-5.258-4.893 0-1.508.977-2.837 2.925-5.107.278.312 3.97 4.896 3.97 4.896l2.356-2.612c.167.267.318.529.453.78 1.099 2.038.635 4.647-1.343 5.993z" fill="#F24941"/></symbol><symbol fill="none" viewBox="0 0 24 27" id="header-users" xmlns="http://www.w3.org/2000/svg"><g clip-path="url(#iclip0_5:122)" fill="#1DAFD1"><path d="M7 13a5 5 0 1110 0 5 5 0 01-10 0zm5 3a3 3 0 100-6 3 3 0 000 6zM6.343 21.343A8 8 0 004 27h2a6 6 0 1112 0h2a8 8 0 00-13.657-5.657z"/></g><defs><clipPath id="iclip0_5:122"><path fill="#fff" d="M0 0h24v27H0z"/></clipPath></defs></symbol><symbol fill="none" viewBox="0 0 15 10" id="mobile-arrow" xmlns="http://www.w3.org/2000/svg"><path d="M.076 1.907L7.5 9.33l7.424-7.424L13.687.669 7.5 6.857 1.313.669.076 1.907z" fill="#1DAFD1"/></symbol><symbol fill="none" viewBox="0 0 19 12" id="mobile-burger" xmlns="http://www.w3.org/2000/svg"><path d="M12.833 12h-12v-2h12v2zm6-5h-18V5h18v2zm-6-5h-12V0h12v2z" fill="#1DAFD1"/></symbol><symbol fill="none" viewBox="0 0 24 24" id="mobile-email" xmlns="http://www.w3.org/2000/svg"><path d="M20 20H4a2 2 0 01-2-2V5.913A2 2 0 014 4h16a2 2 0 012 2v12a2 2 0 01-2 2zM4 7.868V18h16V7.868L12 13.2 4 7.868zM4.8 6l7.2 4.8L19.2 6H4.8z" fill="#1DAFD1"/></symbol><symbol fill="none" viewBox="0 0 19 21" id="mobile-i1" xmlns="http://www.w3.org/2000/svg"><path d="M17.409 21.5H1.591a1.13 1.13 0 01-1.13-1.13V9.54c0-.3.12-.588.331-.8L8.702.831a1.13 1.13 0 011.598 0l7.909 7.91c.212.211.33.499.33.798V20.37a1.13 1.13 0 01-1.13 1.13zM7.24 13.59h4.52v5.65h4.52v-9.233L9.5 3.227l-6.78 6.78v9.233h4.52v-5.65z" fill="#1DAFD1"/></symbol><symbol fill="none" viewBox="0 0 24 24" id="mobile-phone" xmlns="http://www.w3.org/2000/svg"><path d="M8.742 8.682c-1.073.912-1.466 2.575-.54 3.909a12.818 12.818 0 003.208 3.207c1.334.926 2.997.533 3.909-.54l.01.005c1.164.54 2.401.909 3.671 1.097V19h-.004C11.022 19.011 4.991 12.911 5 5.004V5h2.64v.001c.188 1.27.558 2.506 1.097 3.67l.005.01zM19 21H20a1 1 0 001-1v-4.502a1 1 0 00-.853-.99l-.854-.126a11.416 11.416 0 01-3.123-.934l-.753-.349a1 1 0 00-1.234.326l-.341.477c-.299.419-.87.546-1.291.253a10.819 10.819 0 01-2.706-2.705c-.293-.422-.165-.993.253-1.291l.477-.34a1 1 0 00.326-1.235l-.35-.754c-.458-.99-.773-2.042-.933-3.123l-.127-.854A1 1 0 008.501 3H4a1 1 0 00-1 1v1.001C2.99 14.008 9.91 21.013 18.999 21z" fill="#1DAFD1"/></symbol><symbol fill="none" viewBox="0 0 17 19" id="mobile-user" xmlns="http://www.w3.org/2000/svg"><path d="M3.667 5a5 5 0 1110 0 5 5 0 01-10 0zm5 3a3 3 0 100-6 3 3 0 000 6zM3.01 13.343A8 8 0 00.667 19h2a6 6 0 1112 0h2A8 8 0 003.01 13.343z" fill="#1DAFD1"/></symbol><symbol fill="none" viewBox="0 0 10 6" id="nav-drop" xmlns="http://www.w3.org/2000/svg"><path d="M5 5.5l5-5H0l5 5z" fill="#242321"/></symbol><symbol fill="none" viewBox="0 0 18 18" id="phone" xmlns="http://www.w3.org/2000/svg"><path d="M5.742 5.682c-1.073.912-1.466 2.575-.54 3.909a12.817 12.817 0 003.208 3.207c1.334.926 2.997.533 3.909-.54l.01.005c1.164.54 2.401.909 3.671 1.097V16h-.004C8.022 16.011 1.991 9.911 2 2.004V2h2.64v.001c.188 1.27.558 2.506 1.097 3.67l.005.01zM16 18H17a1 1 0 001-1v-4.502a1 1 0 00-.853-.99l-.854-.126a11.416 11.416 0 01-3.123-.934l-.753-.349a1 1 0 00-1.234.326l-.341.477c-.299.419-.87.546-1.291.253A10.816 10.816 0 016.845 8.45c-.293-.422-.165-.993.253-1.291l.477-.34A1 1 0 007.9 5.583l-.35-.754c-.458-.99-.773-2.042-.933-3.123L6.49.853A1 1 0 005.501 0H1a1 1 0 00-1 1v1.001C-.01 11.008 6.91 18.013 15.999 18z" fill="#fff"/></symbol><symbol fill="none" viewBox="0 0 18 18" id="search" xmlns="http://www.w3.org/2000/svg"><path d="M15.677 17.107l-5.715-5.716a6 6 0 01-7.719-9.133 6 6 0 019.134 7.718l5.715 5.716-1.414 1.414-.001.001zM6.485 2.5a4 4 0 102.917 1.264l.605.6-.682-.68-.012-.012A3.972 3.972 0 006.485 2.5z" fill="#fff"/></symbol></svg>